%TF.GenerationSoftware,KiCad,Pcbnew,7.0.8*%
%TF.CreationDate,2023-11-01T12:09:58-04:00*%
%TF.ProjectId,ESP32_CNC,45535033-325f-4434-9e43-2e6b69636164,rev?*%
%TF.SameCoordinates,Original*%
%TF.FileFunction,Soldermask,Bot*%
%TF.FilePolarity,Negative*%
%FSLAX46Y46*%
G04 Gerber Fmt 4.6, Leading zero omitted, Abs format (unit mm)*
G04 Created by KiCad (PCBNEW 7.0.8) date 2023-11-01 12:09:58*
%MOMM*%
%LPD*%
G01*
G04 APERTURE LIST*
G04 Aperture macros list*
%AMRoundRect*
0 Rectangle with rounded corners*
0 $1 Rounding radius*
0 $2 $3 $4 $5 $6 $7 $8 $9 X,Y pos of 4 corners*
0 Add a 4 corners polygon primitive as box body*
4,1,4,$2,$3,$4,$5,$6,$7,$8,$9,$2,$3,0*
0 Add four circle primitives for the rounded corners*
1,1,$1+$1,$2,$3*
1,1,$1+$1,$4,$5*
1,1,$1+$1,$6,$7*
1,1,$1+$1,$8,$9*
0 Add four rect primitives between the rounded corners*
20,1,$1+$1,$2,$3,$4,$5,0*
20,1,$1+$1,$4,$5,$6,$7,0*
20,1,$1+$1,$6,$7,$8,$9,0*
20,1,$1+$1,$8,$9,$2,$3,0*%
G04 Aperture macros list end*
%ADD10RoundRect,0.250000X-0.750000X0.600000X-0.750000X-0.600000X0.750000X-0.600000X0.750000X0.600000X0*%
%ADD11O,2.000000X1.700000*%
%ADD12C,0.650000*%
%ADD13O,1.000000X2.100000*%
%ADD14O,1.000000X1.600000*%
%ADD15RoundRect,0.250000X0.750000X-0.600000X0.750000X0.600000X-0.750000X0.600000X-0.750000X-0.600000X0*%
%ADD16C,0.800000*%
%ADD17C,5.000000*%
%ADD18R,1.700000X1.700000*%
%ADD19O,1.700000X1.700000*%
%ADD20RoundRect,0.250000X-0.650000X-1.550000X0.650000X-1.550000X0.650000X1.550000X-0.650000X1.550000X0*%
%ADD21O,1.800000X3.600000*%
%ADD22RoundRect,0.250000X0.600000X0.750000X-0.600000X0.750000X-0.600000X-0.750000X0.600000X-0.750000X0*%
%ADD23O,1.700000X2.000000*%
%ADD24C,1.700000*%
%ADD25RoundRect,0.250000X0.600000X0.725000X-0.600000X0.725000X-0.600000X-0.725000X0.600000X-0.725000X0*%
%ADD26O,1.700000X1.950000*%
%ADD27C,0.999997*%
%ADD28RoundRect,0.250000X0.750000X1.550000X-0.750000X1.550000X-0.750000X-1.550000X0.750000X-1.550000X0*%
%ADD29O,2.000000X3.600000*%
G04 APERTURE END LIST*
D10*
%TO.C,J10*%
X105731800Y-95219200D03*
D11*
X105731800Y-97719200D03*
%TD*%
D12*
%TO.C,P1*%
X172640000Y-52605000D03*
X166860000Y-52605000D03*
D13*
X174070000Y-53105000D03*
D14*
X174070000Y-48925000D03*
D13*
X165430000Y-53105000D03*
D14*
X165430000Y-48925000D03*
%TD*%
D15*
%TO.C,J3*%
X130894600Y-73995600D03*
D11*
X130894600Y-71495600D03*
%TD*%
D16*
%TO.C,H2*%
X89325000Y-141000000D03*
X89874175Y-139674175D03*
X89874175Y-142325825D03*
X91200000Y-139125000D03*
D17*
X91200000Y-141000000D03*
D16*
X91200000Y-142875000D03*
X92525825Y-139674175D03*
X92525825Y-142325825D03*
X93075000Y-141000000D03*
%TD*%
D18*
%TO.C,J16*%
X121920000Y-122732800D03*
D19*
X121920000Y-120192800D03*
X124460000Y-122732800D03*
X124460000Y-120192800D03*
X127000000Y-122732800D03*
X127000000Y-120192800D03*
X129540000Y-122732800D03*
X129540000Y-120192800D03*
%TD*%
D10*
%TO.C,J11*%
X96486200Y-103906000D03*
D11*
X96486200Y-106406000D03*
%TD*%
D20*
%TO.C,J6*%
X119908400Y-137546900D03*
D21*
X123408400Y-137546900D03*
X126908400Y-137546900D03*
X130408400Y-137546900D03*
%TD*%
D22*
%TO.C,J2*%
X126198000Y-49936400D03*
D23*
X123698000Y-49936400D03*
%TD*%
D18*
%TO.C,U9*%
X176993400Y-113129400D03*
D19*
X174453400Y-113129400D03*
X171913400Y-113129400D03*
X169373400Y-113129400D03*
X166833400Y-113129400D03*
X164293400Y-113129400D03*
X161753400Y-113129400D03*
X159213400Y-113129400D03*
X159213400Y-125729400D03*
X161753400Y-125729400D03*
X164293400Y-125729400D03*
X166833400Y-125729400D03*
X169373400Y-125729400D03*
X171913400Y-125729400D03*
X174453400Y-125729400D03*
D24*
X176993400Y-125729400D03*
D19*
X176993400Y-118209400D03*
X176993400Y-115669400D03*
%TD*%
D20*
%TO.C,J8*%
X162908400Y-137546900D03*
D21*
X166408400Y-137546900D03*
X169908400Y-137546900D03*
X173408400Y-137546900D03*
%TD*%
D15*
%TO.C,J9*%
X130843800Y-91064400D03*
D11*
X130843800Y-88564400D03*
%TD*%
D15*
%TO.C,J4*%
X130843800Y-82580800D03*
D11*
X130843800Y-80080800D03*
%TD*%
D16*
%TO.C,H4*%
X179325000Y-51000000D03*
X179874175Y-49674175D03*
X179874175Y-52325825D03*
X181200000Y-49125000D03*
D17*
X181200000Y-51000000D03*
D16*
X181200000Y-52875000D03*
X182525825Y-49674175D03*
X182525825Y-52325825D03*
X183075000Y-51000000D03*
%TD*%
D20*
%TO.C,J5*%
X98208400Y-137546900D03*
D21*
X101708400Y-137546900D03*
X105208400Y-137546900D03*
X108708400Y-137546900D03*
%TD*%
D16*
%TO.C,H1*%
X89375000Y-51000000D03*
X89924175Y-49674175D03*
X89924175Y-52325825D03*
X91250000Y-49125000D03*
D17*
X91250000Y-51000000D03*
D16*
X91250000Y-52875000D03*
X92575825Y-49674175D03*
X92575825Y-52325825D03*
X93125000Y-51000000D03*
%TD*%
D18*
%TO.C,U6*%
X112053400Y-113179400D03*
D19*
X109513400Y-113179400D03*
X106973400Y-113179400D03*
X104433400Y-113179400D03*
X101893400Y-113179400D03*
X99353400Y-113179400D03*
X96813400Y-113179400D03*
X94273400Y-113179400D03*
X94273400Y-125779400D03*
X96813400Y-125779400D03*
X99353400Y-125779400D03*
X101893400Y-125779400D03*
X104433400Y-125779400D03*
X106973400Y-125779400D03*
X109513400Y-125779400D03*
D24*
X112053400Y-125779400D03*
D19*
X112053400Y-118259400D03*
X112053400Y-115719400D03*
%TD*%
D25*
%TO.C,J14*%
X126807600Y-64177400D03*
D26*
X124307600Y-64177400D03*
X121807600Y-64177400D03*
%TD*%
D27*
%TO.C,MICRO_SD1*%
X151753800Y-49719400D03*
X143778200Y-49719400D03*
%TD*%
D18*
%TO.C,J18*%
X165252400Y-122682000D03*
D19*
X165252400Y-120142000D03*
X167792400Y-122682000D03*
X167792400Y-120142000D03*
X170332400Y-122682000D03*
X170332400Y-120142000D03*
X172872400Y-122682000D03*
X172872400Y-120142000D03*
%TD*%
D18*
%TO.C,J15*%
X100330000Y-122732800D03*
D19*
X100330000Y-120192800D03*
X102870000Y-122732800D03*
X102870000Y-120192800D03*
X105410000Y-122732800D03*
X105410000Y-120192800D03*
X107950000Y-122732800D03*
X107950000Y-120192800D03*
%TD*%
D10*
%TO.C,J12*%
X96570800Y-95290000D03*
D11*
X96570800Y-97790000D03*
%TD*%
D16*
%TO.C,H3*%
X179325000Y-141000000D03*
X179874175Y-139674175D03*
X179874175Y-142325825D03*
X181200000Y-139125000D03*
D17*
X181200000Y-141000000D03*
D16*
X181200000Y-142875000D03*
X182525825Y-139674175D03*
X182525825Y-142325825D03*
X183075000Y-141000000D03*
%TD*%
D28*
%TO.C,J1*%
X104562500Y-56277500D03*
D29*
X99562500Y-56277500D03*
%TD*%
D20*
%TO.C,J7*%
X141408400Y-137546900D03*
D21*
X144908400Y-137546900D03*
X148408400Y-137546900D03*
X151908400Y-137546900D03*
%TD*%
D18*
%TO.C,J17*%
X143764000Y-122682000D03*
D19*
X143764000Y-120142000D03*
X146304000Y-122682000D03*
X146304000Y-120142000D03*
X148844000Y-122682000D03*
X148844000Y-120142000D03*
X151384000Y-122682000D03*
X151384000Y-120142000D03*
%TD*%
D18*
%TO.C,U7*%
X133803400Y-113179400D03*
D19*
X131263400Y-113179400D03*
X128723400Y-113179400D03*
X126183400Y-113179400D03*
X123643400Y-113179400D03*
X121103400Y-113179400D03*
X118563400Y-113179400D03*
X116023400Y-113179400D03*
X116023400Y-125779400D03*
X118563400Y-125779400D03*
X121103400Y-125779400D03*
X123643400Y-125779400D03*
X126183400Y-125779400D03*
X128723400Y-125779400D03*
X131263400Y-125779400D03*
D24*
X133803400Y-125779400D03*
D19*
X133803400Y-118259400D03*
X133803400Y-115719400D03*
%TD*%
D18*
%TO.C,U8*%
X155553400Y-113179400D03*
D19*
X153013400Y-113179400D03*
X150473400Y-113179400D03*
X147933400Y-113179400D03*
X145393400Y-113179400D03*
X142853400Y-113179400D03*
X140313400Y-113179400D03*
X137773400Y-113179400D03*
X137773400Y-125779400D03*
X140313400Y-125779400D03*
X142853400Y-125779400D03*
X145393400Y-125779400D03*
X147933400Y-125779400D03*
X150473400Y-125779400D03*
X153013400Y-125779400D03*
D24*
X155553400Y-125779400D03*
D19*
X155553400Y-118259400D03*
X155553400Y-115719400D03*
%TD*%
M02*
