M48
; DRILL file {KiCad 7.0.8} date Wed Nov  1 12:09:58 2023
; FORMAT={-:-/ absolute / inch / decimal}
; #@! TF.CreationDate,2023-11-01T12:09:58-04:00
; #@! TF.GenerationSoftware,Kicad,Pcbnew,7.0.8
; #@! TF.FileFunction,Plated,1,2,PTH
FMAT,2
INCH
; #@! TA.AperFunction,Plated,PTH,ViaDrill
T1C0.0079
; #@! TA.AperFunction,Plated,PTH,ComponentDrill
T2C0.0079
; #@! TA.AperFunction,Plated,PTH,ViaDrill
T3C0.0118
; #@! TA.AperFunction,Plated,PTH,ComponentDrill
T4C0.0118
; #@! TA.AperFunction,Plated,PTH,ViaDrill
T5C0.0157
; #@! TA.AperFunction,Plated,PTH,ComponentDrill
T6C0.0197
; #@! TA.AperFunction,Plated,PTH,ViaDrill
T7C0.0236
; #@! TA.AperFunction,Plated,PTH,ComponentDrill
T8C0.0236
; #@! TA.AperFunction,Plated,PTH,ViaDrill
T9C0.0276
; #@! TA.AperFunction,Plated,PTH,ViaDrill
T10C0.0315
; #@! TA.AperFunction,Plated,PTH,ComponentDrill
T11C0.0374
; #@! TA.AperFunction,Plated,PTH,ComponentDrill
T12C0.0394
; #@! TA.AperFunction,Plated,PTH,ComponentDrill
T13C0.0472
; #@! TA.AperFunction,Plated,PTH,ComponentDrill
T14C0.0551
; #@! TA.AperFunction,Plated,PTH,ComponentDrill
T15C0.0984
%
G90
G05
T1
X4.46Y-4.08
X5.71Y-4.09
X5.7402Y-2.4882
X5.7795Y-2.4646
X5.8189Y-2.563
X5.863Y-2.4693
X5.9449Y-2.5276
X6.3268Y-2.6142
X6.3801Y-3.9431
X6.5157Y-2.6161
X6.53Y-3.79
X6.53Y-4.13
X6.5531Y-3.5453
X6.5748Y-2.1575
X6.5783Y-3.4917
X6.621Y-3.4981
X6.6555Y-3.4882
X6.6732Y-2.0669
X6.6752Y-3.4646
X6.6929Y-2.1575
X6.7126Y-2.0669
X6.748Y-2.1654
X6.7795Y-2.1654
X6.88Y-3.5197
T2
X6.6726Y-3.2306
X6.6726Y-3.2906
X6.7026Y-3.2006
X6.7026Y-3.2606
X6.7026Y-3.3207
X6.7326Y-3.2306
X6.7326Y-3.2906
X6.7626Y-3.2006
X6.7626Y-3.2606
X6.7626Y-3.3207
X6.7926Y-3.2306
X6.7926Y-3.2906
T3
X4.5126Y-4.045
X4.6149Y-4.0549
X4.895Y-4.015
X5.08Y-4.13
X5.25Y-3.81
X5.29Y-3.77
X5.4Y-3.81
X5.705Y-3.8356
X5.885Y-2.793
X5.925Y-3.8356
X6.155Y-3.7544
X6.1929Y-2.1654
X6.23Y-2.34
X6.3735Y-3.7026
X6.39Y-3.7294
X6.405Y-2.295
X6.555Y-3.72
X6.585Y-3.785
X6.638Y-3.1
X6.726Y-2.794
X6.7375Y-2.742
X6.8Y-3.725
X6.845Y-2.29
X6.895Y-2.295
X6.95Y-2.85
T4
X3.8041Y-2.6901
X3.8041Y-2.7373
X3.8474Y-2.6901
X3.8474Y-2.7373
X3.8986Y-2.6901
X3.8986Y-2.7373
X3.9459Y-2.6901
X3.9459Y-2.7373
T5
X3.68Y-2.84
X3.68Y-2.94
X4.406Y-4.3335
X4.57Y-3.25
X4.604Y-4.322
X4.672Y-4.256
X4.725Y-3.18
X5.02Y-3.78
X5.386Y-2.572
X5.436Y-2.54
X5.72Y-3.12
X5.72Y-3.19
X5.758Y-4.34
X5.76Y-2.89
X5.8065Y-2.9535
X5.986Y-3.002
X6.172Y-3.656
X6.174Y-3.51
X6.316Y-2.964
X6.404Y-3.064
T6
X3.5167Y-5.5512
X3.5187Y-2.0079
X3.5384Y-5.499
X3.5384Y-5.6034
X3.5403Y-1.9557
X3.5403Y-2.0601
X3.5906Y-5.4774
X3.5906Y-5.625
X3.5925Y-1.9341
X3.5925Y-2.0817
X3.6427Y-5.499
X3.6427Y-5.6034
X3.6447Y-1.9557
X3.6447Y-2.0601
X3.6644Y-5.5512
X3.6663Y-2.0079
X7.06Y-2.0079
X7.06Y-5.5512
X7.0817Y-1.9557
X7.0817Y-2.0601
X7.0817Y-5.499
X7.0817Y-5.6034
X7.1339Y-1.9341
X7.1339Y-2.0817
X7.1339Y-5.4774
X7.1339Y-5.625
X7.1861Y-1.9557
X7.1861Y-2.0601
X7.1861Y-5.499
X7.1861Y-5.6034
X7.2077Y-2.0079
X7.2077Y-5.5512
T7
X4.605Y-5.2767
X5.268Y-5.276
X6.122Y-5.278
X6.97Y-5.276
T9
X5.792Y-4.112
T10
X4.542Y-3.36
X5.066Y-2.36
X6.88Y-3.735
T11
X4.7956Y-2.5267
X4.894Y-2.5267
X4.9924Y-2.5267
T12
X3.7116Y-4.4559
X3.7116Y-4.9519
X3.7987Y-4.0908
X3.7987Y-4.1892
X3.802Y-3.7516
X3.802Y-3.85
X3.8116Y-4.4559
X3.8116Y-4.9519
X3.9116Y-4.4559
X3.9116Y-4.9519
X3.95Y-4.732
X3.95Y-4.832
X4.0116Y-4.4559
X4.0116Y-4.9519
X4.05Y-4.732
X4.05Y-4.832
X4.1116Y-4.4559
X4.1116Y-4.9519
X4.15Y-4.732
X4.15Y-4.832
X4.1627Y-3.7488
X4.1627Y-3.8472
X4.2116Y-4.4559
X4.2116Y-4.9519
X4.25Y-4.732
X4.25Y-4.832
X4.3116Y-4.4559
X4.3116Y-4.9519
X4.4116Y-4.4559
X4.4116Y-4.5559
X4.4116Y-4.6559
X4.4116Y-4.9519
X4.5679Y-4.4559
X4.5679Y-4.9519
X4.6679Y-4.4559
X4.6679Y-4.9519
X4.7679Y-4.4559
X4.7679Y-4.9519
X4.8Y-4.732
X4.8Y-4.832
X4.8679Y-4.4559
X4.8679Y-4.9519
X4.87Y-1.966
X4.9Y-4.732
X4.9Y-4.832
X4.9679Y-4.4559
X4.9679Y-4.9519
X4.9684Y-1.966
X5.0Y-4.732
X5.0Y-4.832
X5.0679Y-4.4559
X5.0679Y-4.9519
X5.1Y-4.732
X5.1Y-4.832
X5.1513Y-3.1528
X5.1513Y-3.2512
X5.1513Y-3.4868
X5.1513Y-3.5852
X5.1533Y-2.8148
X5.1533Y-2.9132
X5.1679Y-4.4559
X5.1679Y-4.9519
X5.2679Y-4.4559
X5.2679Y-4.5559
X5.2679Y-4.6559
X5.2679Y-4.9519
X5.4241Y-4.4559
X5.4241Y-4.9519
X5.5241Y-4.4559
X5.5241Y-4.9519
X5.6241Y-4.4559
X5.6241Y-4.9519
X5.66Y-4.73
X5.66Y-4.83
X5.7241Y-4.4559
X5.7241Y-4.9519
X5.76Y-4.73
X5.76Y-4.83
X5.8241Y-4.4559
X5.8241Y-4.9519
X5.86Y-4.73
X5.86Y-4.83
X5.9241Y-4.4559
X5.9241Y-4.9519
X5.96Y-4.73
X5.96Y-4.83
X6.0241Y-4.4559
X6.0241Y-4.9519
X6.1241Y-4.4559
X6.1241Y-4.5559
X6.1241Y-4.6559
X6.1241Y-4.9519
X6.2682Y-4.4539
X6.2682Y-4.95
X6.3682Y-4.4539
X6.3682Y-4.95
X6.4682Y-4.4539
X6.4682Y-4.95
X6.506Y-4.73
X6.506Y-4.83
X6.5682Y-4.4539
X6.5682Y-4.95
X6.606Y-4.73
X6.606Y-4.83
X6.6682Y-4.4539
X6.6682Y-4.95
X6.706Y-4.73
X6.706Y-4.83
X6.7682Y-4.4539
X6.7682Y-4.95
X6.806Y-4.73
X6.806Y-4.83
X6.8682Y-4.4539
X6.8682Y-4.95
X6.9682Y-4.4539
X6.9682Y-4.5539
X6.9682Y-4.6539
X6.9682Y-4.95
T13
X3.8665Y-5.4152
X4.0043Y-5.4152
X4.1421Y-5.4152
X4.2799Y-5.4152
X4.7208Y-5.4152
X4.8586Y-5.4152
X4.9964Y-5.4152
X5.1342Y-5.4152
X5.5673Y-5.4152
X5.7051Y-5.4152
X5.8429Y-5.4152
X5.9806Y-5.4152
X6.4137Y-5.4152
X6.5515Y-5.4152
X6.6893Y-5.4152
X6.8271Y-5.4152
T14
X3.9198Y-2.2156
X4.1166Y-2.2156
T15
X3.5906Y-5.5512
X3.5925Y-2.0079
X7.1339Y-2.0079
X7.1339Y-5.5512
T8
G00X6.513Y-1.938
M15
G01X6.513Y-1.9144
M16
G05
G00X6.513Y-2.1124
M15
G01X6.513Y-2.0691
M16
G05
G00X6.8531Y-1.938
M15
G01X6.8531Y-1.9144
M16
G05
G00X6.8531Y-2.1124
M15
G01X6.8531Y-2.0691
M16
G05
T0
M30
