%TF.GenerationSoftware,KiCad,Pcbnew,7.0.8*%
%TF.CreationDate,2023-11-01T12:09:58-04:00*%
%TF.ProjectId,ESP32_CNC,45535033-325f-4434-9e43-2e6b69636164,rev?*%
%TF.SameCoordinates,Original*%
%TF.FileFunction,Legend,Bot*%
%TF.FilePolarity,Positive*%
%FSLAX46Y46*%
G04 Gerber Fmt 4.6, Leading zero omitted, Abs format (unit mm)*
G04 Created by KiCad (PCBNEW 7.0.8) date 2023-11-01 12:09:58*
%MOMM*%
%LPD*%
G01*
G04 APERTURE LIST*
G04 Aperture macros list*
%AMRoundRect*
0 Rectangle with rounded corners*
0 $1 Rounding radius*
0 $2 $3 $4 $5 $6 $7 $8 $9 X,Y pos of 4 corners*
0 Add a 4 corners polygon primitive as box body*
4,1,4,$2,$3,$4,$5,$6,$7,$8,$9,$2,$3,0*
0 Add four circle primitives for the rounded corners*
1,1,$1+$1,$2,$3*
1,1,$1+$1,$4,$5*
1,1,$1+$1,$6,$7*
1,1,$1+$1,$8,$9*
0 Add four rect primitives between the rounded corners*
20,1,$1+$1,$2,$3,$4,$5,0*
20,1,$1+$1,$4,$5,$6,$7,0*
20,1,$1+$1,$6,$7,$8,$9,0*
20,1,$1+$1,$8,$9,$2,$3,0*%
G04 Aperture macros list end*
%ADD10RoundRect,0.250000X-0.750000X0.600000X-0.750000X-0.600000X0.750000X-0.600000X0.750000X0.600000X0*%
%ADD11O,2.000000X1.700000*%
%ADD12C,0.650000*%
%ADD13O,1.000000X2.100000*%
%ADD14O,1.000000X1.600000*%
%ADD15RoundRect,0.250000X0.750000X-0.600000X0.750000X0.600000X-0.750000X0.600000X-0.750000X-0.600000X0*%
%ADD16C,0.800000*%
%ADD17C,5.000000*%
%ADD18R,1.700000X1.700000*%
%ADD19O,1.700000X1.700000*%
%ADD20RoundRect,0.250000X-0.650000X-1.550000X0.650000X-1.550000X0.650000X1.550000X-0.650000X1.550000X0*%
%ADD21O,1.800000X3.600000*%
%ADD22RoundRect,0.250000X0.600000X0.750000X-0.600000X0.750000X-0.600000X-0.750000X0.600000X-0.750000X0*%
%ADD23O,1.700000X2.000000*%
%ADD24C,1.700000*%
%ADD25RoundRect,0.250000X0.600000X0.725000X-0.600000X0.725000X-0.600000X-0.725000X0.600000X-0.725000X0*%
%ADD26O,1.700000X1.950000*%
%ADD27C,0.999997*%
%ADD28RoundRect,0.250000X0.750000X1.550000X-0.750000X1.550000X-0.750000X-1.550000X0.750000X-1.550000X0*%
%ADD29O,2.000000X3.600000*%
G04 APERTURE END LIST*
%TO.C,G\u002A\u002A\u002A*%
G36*
X144878449Y-101869254D02*
G01*
X144853644Y-101894059D01*
X144828839Y-101869254D01*
X144853644Y-101844450D01*
X144878449Y-101869254D01*
G37*
G36*
X142993292Y-100629020D02*
G01*
X142968488Y-100653825D01*
X142943683Y-100629020D01*
X142968488Y-100604215D01*
X142993292Y-100629020D01*
G37*
G36*
X132624933Y-85448551D02*
G01*
X132600128Y-85473356D01*
X132575324Y-85448551D01*
X132600128Y-85423747D01*
X132624933Y-85448551D01*
G37*
G36*
X126870245Y-88772379D02*
G01*
X126845441Y-88797184D01*
X126820636Y-88772379D01*
X126845441Y-88747575D01*
X126870245Y-88772379D01*
G37*
G36*
X128034855Y-96445632D02*
G01*
X128037310Y-96591175D01*
X128038901Y-96813422D01*
X128039476Y-97106754D01*
X128038936Y-97399838D01*
X128037367Y-97626017D01*
X128034921Y-97776813D01*
X128031751Y-97846267D01*
X128028009Y-97828421D01*
X128023848Y-97717314D01*
X128020165Y-97535938D01*
X128017434Y-97195767D01*
X128018641Y-96841808D01*
X128023789Y-96526689D01*
X128023822Y-96525403D01*
X128027959Y-96407128D01*
X128031687Y-96382410D01*
X128034855Y-96445632D01*
G37*
G36*
X136337917Y-83458608D02*
G01*
X136428740Y-83492768D01*
X136565154Y-83565545D01*
X136767316Y-83682452D01*
X136857843Y-83734659D01*
X137059438Y-83848488D01*
X137238605Y-83946969D01*
X137256041Y-83956355D01*
X137555609Y-84121736D01*
X137836406Y-84286463D01*
X138148198Y-84479682D01*
X138174772Y-84496381D01*
X138328025Y-84589316D01*
X138445133Y-84654820D01*
X138502551Y-84679606D01*
X138519388Y-84685106D01*
X138611404Y-84731257D01*
X138768960Y-84818095D01*
X138979001Y-84938111D01*
X139228472Y-85083796D01*
X139504319Y-85247642D01*
X139793488Y-85422139D01*
X139946232Y-85512486D01*
X140168629Y-85638001D01*
X140363995Y-85742276D01*
X140489732Y-85808875D01*
X140628219Y-85888640D01*
X140711261Y-85944561D01*
X140771854Y-85987288D01*
X140900975Y-86065926D01*
X141058527Y-86153995D01*
X141178168Y-86218733D01*
X141371366Y-86325237D01*
X141529816Y-86414744D01*
X141562253Y-86433384D01*
X141748485Y-86538497D01*
X141926691Y-86636710D01*
X141970088Y-86660589D01*
X142153562Y-86766580D01*
X142328643Y-86873689D01*
X142387515Y-86910207D01*
X142553630Y-87009061D01*
X142759460Y-87128005D01*
X142973565Y-87248755D01*
X143167737Y-87356829D01*
X143409610Y-87491942D01*
X143592191Y-87594981D01*
X143732257Y-87675657D01*
X143846582Y-87743680D01*
X143951941Y-87808759D01*
X144065109Y-87880606D01*
X144182370Y-87953406D01*
X144365393Y-88060484D01*
X144515321Y-88141056D01*
X144624735Y-88196805D01*
X144901234Y-88347637D01*
X145191672Y-88517430D01*
X145253312Y-88554449D01*
X145390603Y-88636445D01*
X145572751Y-88744960D01*
X145777095Y-88866483D01*
X145801555Y-88881087D01*
X146058123Y-89045767D01*
X146230703Y-89181031D01*
X146315057Y-89283593D01*
X146337744Y-89358763D01*
X146362180Y-89511175D01*
X146383721Y-89734320D01*
X146402435Y-90031045D01*
X146418387Y-90404196D01*
X146431645Y-90856618D01*
X146442276Y-91391157D01*
X146450345Y-92010661D01*
X146455920Y-92717974D01*
X146459067Y-93515942D01*
X146459854Y-94407413D01*
X146458347Y-95395231D01*
X146456076Y-96121411D01*
X146452457Y-96883728D01*
X146447621Y-97558116D01*
X146441378Y-98150660D01*
X146433542Y-98667445D01*
X146423922Y-99114554D01*
X146412332Y-99498072D01*
X146398582Y-99824083D01*
X146382484Y-100098672D01*
X146363849Y-100327923D01*
X146342490Y-100517919D01*
X146318218Y-100674746D01*
X146290844Y-100804487D01*
X146258826Y-100865603D01*
X146144142Y-100985334D01*
X145961813Y-101128721D01*
X145725524Y-101285358D01*
X145448956Y-101444837D01*
X145344085Y-101503322D01*
X145160348Y-101610513D01*
X144977667Y-101721323D01*
X144843806Y-101802828D01*
X144689168Y-101893082D01*
X144580792Y-101951850D01*
X144524730Y-101982083D01*
X144385544Y-102066379D01*
X144233527Y-102166510D01*
X144134867Y-102231366D01*
X143933330Y-102353627D01*
X143737433Y-102462509D01*
X143621838Y-102525118D01*
X143422963Y-102640644D01*
X143257206Y-102745535D01*
X143182037Y-102795265D01*
X143075210Y-102860646D01*
X143020884Y-102886247D01*
X142985726Y-102902348D01*
X142879029Y-102960526D01*
X142718331Y-103051694D01*
X142520736Y-103165889D01*
X142303347Y-103293148D01*
X142083267Y-103423509D01*
X141877600Y-103547007D01*
X141703449Y-103653680D01*
X141694031Y-103659533D01*
X141327843Y-103883683D01*
X140978125Y-104091430D01*
X140666904Y-104269894D01*
X140416210Y-104406200D01*
X140404649Y-104412234D01*
X140241510Y-104500694D01*
X140113202Y-104576011D01*
X140046620Y-104622450D01*
X140024926Y-104642830D01*
X139982003Y-104672184D01*
X139979342Y-104653440D01*
X139975411Y-104551181D01*
X139972047Y-104371986D01*
X139969427Y-104129575D01*
X139967727Y-103837672D01*
X139967120Y-103509997D01*
X139967120Y-102347810D01*
X140103546Y-102278198D01*
X140113815Y-102272949D01*
X140280870Y-102185829D01*
X140483364Y-102077940D01*
X140696651Y-101962681D01*
X140896086Y-101853451D01*
X141057020Y-101763650D01*
X141154809Y-101706675D01*
X141205511Y-101676459D01*
X141350517Y-101593929D01*
X141556082Y-101479490D01*
X141805310Y-101342417D01*
X142081307Y-101191982D01*
X142367178Y-101037461D01*
X142646027Y-100888126D01*
X142676816Y-100871624D01*
X142883554Y-100756428D01*
X143079339Y-100640934D01*
X143225473Y-100547867D01*
X143300448Y-100498596D01*
X143415525Y-100431917D01*
X143481993Y-100405778D01*
X143502865Y-100399695D01*
X143597401Y-100353507D01*
X143743513Y-100271819D01*
X143919539Y-100166477D01*
X144002374Y-100115897D01*
X144175735Y-100013020D01*
X144313427Y-99935283D01*
X144391284Y-99896515D01*
X144394893Y-99895076D01*
X144461341Y-99815550D01*
X144501844Y-99652125D01*
X144522893Y-99447473D01*
X144546488Y-99109983D01*
X144568099Y-98673731D01*
X144587720Y-98138955D01*
X144605343Y-97505893D01*
X144620963Y-96774784D01*
X144634573Y-95945867D01*
X144646167Y-95019380D01*
X144655737Y-93995562D01*
X144683729Y-90487494D01*
X144483625Y-90361174D01*
X144297491Y-90247501D01*
X144081686Y-90125804D01*
X143901219Y-90035221D01*
X143771927Y-89983578D01*
X143709648Y-89978702D01*
X143696213Y-89988159D01*
X143702017Y-89959640D01*
X143699997Y-89947425D01*
X143644404Y-89890215D01*
X143536295Y-89807416D01*
X143400058Y-89715076D01*
X143260079Y-89629248D01*
X143140744Y-89565981D01*
X143066440Y-89541325D01*
X143038461Y-89530049D01*
X142946240Y-89475944D01*
X142819219Y-89392194D01*
X142686903Y-89306524D01*
X142487792Y-89187357D01*
X142289383Y-89076836D01*
X142130386Y-88990406D01*
X141891273Y-88855578D01*
X141678644Y-88730890D01*
X141531767Y-88642202D01*
X141296390Y-88500059D01*
X141083331Y-88371378D01*
X141082364Y-88370793D01*
X140912990Y-88269797D01*
X140686847Y-88136783D01*
X140421728Y-87982031D01*
X140135425Y-87815822D01*
X139845728Y-87648436D01*
X139570432Y-87490153D01*
X139327327Y-87351254D01*
X139134205Y-87242020D01*
X139008859Y-87172730D01*
X138942161Y-87135766D01*
X138774960Y-87038876D01*
X138570827Y-86917096D01*
X138359860Y-86788257D01*
X138221646Y-86704089D01*
X138054765Y-86606504D01*
X137932352Y-86539835D01*
X137874094Y-86515153D01*
X137813966Y-86487616D01*
X137723270Y-86415934D01*
X137632892Y-86348172D01*
X137551711Y-86316715D01*
X137526101Y-86312687D01*
X137486652Y-86267106D01*
X137485272Y-86255300D01*
X137438750Y-86217497D01*
X137417903Y-86212071D01*
X137321274Y-86168386D01*
X137171428Y-86090653D01*
X136989955Y-85990631D01*
X136798445Y-85880078D01*
X136618488Y-85770753D01*
X136518350Y-85707862D01*
X136368510Y-85619342D01*
X136265929Y-85581136D01*
X136185162Y-85593086D01*
X136100765Y-85655032D01*
X135987292Y-85766817D01*
X135760116Y-85994254D01*
X135731092Y-89987809D01*
X135726750Y-90613579D01*
X135721742Y-91399153D01*
X135716724Y-92249239D01*
X135711787Y-93145416D01*
X135707022Y-94069257D01*
X135702521Y-95002339D01*
X135698376Y-95926239D01*
X135694677Y-96822531D01*
X135691518Y-97672792D01*
X135688989Y-98458598D01*
X135688914Y-98484007D01*
X135686613Y-99140116D01*
X135683718Y-99766920D01*
X135680301Y-100357427D01*
X135676435Y-100904646D01*
X135672191Y-101401586D01*
X135667642Y-101841255D01*
X135662859Y-102216662D01*
X135657915Y-102520816D01*
X135652882Y-102746725D01*
X135647832Y-102887398D01*
X135642837Y-102935844D01*
X135639058Y-102935590D01*
X135593227Y-102894537D01*
X135582528Y-102880814D01*
X135501345Y-102816964D01*
X135355304Y-102718931D01*
X135160350Y-102596253D01*
X134932426Y-102458473D01*
X134687476Y-102315129D01*
X134441443Y-102175761D01*
X134210270Y-102049911D01*
X134009902Y-101947118D01*
X133865167Y-101876153D01*
X133864986Y-98722509D01*
X133864268Y-98032863D01*
X133861876Y-97312440D01*
X133857879Y-96656853D01*
X133852351Y-96069922D01*
X133845367Y-95555467D01*
X133837000Y-95117308D01*
X133827325Y-94759264D01*
X133816417Y-94485156D01*
X133804349Y-94298803D01*
X133791197Y-94204024D01*
X133777034Y-94204640D01*
X133755007Y-94259989D01*
X133696500Y-94390668D01*
X133612359Y-94571084D01*
X133512462Y-94779761D01*
X133427145Y-94957839D01*
X133345624Y-95132636D01*
X133290263Y-95256917D01*
X133269855Y-95311412D01*
X133253704Y-95356776D01*
X133202655Y-95475319D01*
X133125017Y-95646954D01*
X133029331Y-95852468D01*
X132963843Y-95991630D01*
X132833427Y-96269910D01*
X132705142Y-96544864D01*
X132599158Y-96773320D01*
X132552904Y-96870140D01*
X132471753Y-97023230D01*
X132408485Y-97120919D01*
X132373887Y-97145390D01*
X132355373Y-97113688D01*
X132304056Y-97003437D01*
X132232627Y-96836840D01*
X132150532Y-96635465D01*
X132097161Y-96503802D01*
X132013613Y-96306448D01*
X131943378Y-96150808D01*
X131897672Y-96062304D01*
X131861555Y-95993750D01*
X131798506Y-95847251D01*
X131734354Y-95675027D01*
X131661480Y-95482932D01*
X131564125Y-95251925D01*
X131463635Y-95032759D01*
X131449653Y-95003617D01*
X131363886Y-94815227D01*
X131295417Y-94649352D01*
X131257994Y-94539001D01*
X131228104Y-94442799D01*
X131184365Y-94380904D01*
X131150347Y-94413579D01*
X131136652Y-94540676D01*
X131136117Y-94575670D01*
X131124795Y-94700028D01*
X131103382Y-94767043D01*
X131095663Y-94795712D01*
X131084650Y-94910282D01*
X131075148Y-95095163D01*
X131067974Y-95332957D01*
X131063947Y-95606268D01*
X131060813Y-95882776D01*
X131054714Y-96232309D01*
X131046368Y-96605931D01*
X131036239Y-96989945D01*
X131024795Y-97370650D01*
X131012501Y-97734348D01*
X130999825Y-98067341D01*
X130987231Y-98355929D01*
X130975187Y-98586413D01*
X130964158Y-98745096D01*
X130954612Y-98818278D01*
X130954499Y-98818620D01*
X130944836Y-98896107D01*
X130936851Y-99050367D01*
X130931372Y-99259199D01*
X130929224Y-99500407D01*
X130929195Y-99516840D01*
X130925352Y-99747065D01*
X130916036Y-99935003D01*
X130902588Y-100061680D01*
X130886346Y-100108122D01*
X130853342Y-100096772D01*
X130754481Y-100042771D01*
X130623448Y-99959294D01*
X130536054Y-99902713D01*
X130420604Y-99836337D01*
X130355798Y-99810465D01*
X130298330Y-99782355D01*
X130214165Y-99705885D01*
X130175545Y-99669051D01*
X130048227Y-99573937D01*
X129896417Y-99482200D01*
X129857446Y-99461324D01*
X129651013Y-99346101D01*
X129509587Y-99256217D01*
X129411278Y-99177946D01*
X129369974Y-99146113D01*
X129297561Y-99115934D01*
X129290817Y-99083514D01*
X129283137Y-98957336D01*
X129276181Y-98740254D01*
X129269998Y-98436850D01*
X129264641Y-98051709D01*
X129260162Y-97589415D01*
X129256610Y-97054550D01*
X129254039Y-96451698D01*
X129252499Y-95785443D01*
X129252042Y-95060368D01*
X129252588Y-91004801D01*
X129562100Y-90808444D01*
X129563662Y-90807453D01*
X129737661Y-90699306D01*
X129896992Y-90604026D01*
X130007344Y-90542134D01*
X130012680Y-90539332D01*
X130095210Y-90476044D01*
X130111300Y-90420768D01*
X130102121Y-90401275D01*
X130125859Y-90397990D01*
X130142225Y-90398859D01*
X130229280Y-90365091D01*
X130366952Y-90289953D01*
X130533856Y-90184629D01*
X130895520Y-89942633D01*
X130968087Y-90126451D01*
X130994806Y-90190823D01*
X131075267Y-90367916D01*
X131163067Y-90545551D01*
X131208830Y-90637509D01*
X131263966Y-90763381D01*
X131285480Y-90835710D01*
X131287188Y-90855947D01*
X131299750Y-90903226D01*
X131329815Y-90981664D01*
X131383561Y-91105918D01*
X131467168Y-91290646D01*
X131586815Y-91550504D01*
X131649843Y-91690126D01*
X131747145Y-91914997D01*
X131827649Y-92111087D01*
X131935493Y-92375226D01*
X132043897Y-92622151D01*
X132144947Y-92835545D01*
X132231368Y-93000721D01*
X132295883Y-93102993D01*
X132331218Y-93127673D01*
X132370394Y-93054017D01*
X132430983Y-92896208D01*
X132508641Y-92666634D01*
X132599261Y-92377442D01*
X132698736Y-92040779D01*
X132754524Y-91849349D01*
X132833750Y-91583126D01*
X132917753Y-91305626D01*
X132999978Y-91038142D01*
X133073869Y-90801965D01*
X133132871Y-90618390D01*
X133170429Y-90508708D01*
X133198842Y-90423800D01*
X133253746Y-90248853D01*
X133332030Y-89993574D01*
X133431372Y-89665587D01*
X133549451Y-89272517D01*
X133683945Y-88821989D01*
X133697378Y-88775830D01*
X133722427Y-88678826D01*
X133742397Y-88576367D01*
X133757874Y-88456733D01*
X133769448Y-88308203D01*
X133777706Y-88119058D01*
X133783237Y-87877576D01*
X133786629Y-87572037D01*
X133788471Y-87190722D01*
X133789350Y-86721908D01*
X133791366Y-84969093D01*
X134262349Y-84683281D01*
X134340402Y-84635899D01*
X134704769Y-84414286D01*
X135053693Y-84201409D01*
X135375602Y-84004374D01*
X135658923Y-83830291D01*
X135892084Y-83686265D01*
X136063511Y-83579405D01*
X136161633Y-83516818D01*
X136212409Y-83484091D01*
X136272526Y-83457553D01*
X136337917Y-83458608D01*
G37*
G36*
X132591582Y-85563160D02*
G01*
X132604099Y-85641480D01*
X132613628Y-85795662D01*
X132620120Y-86007318D01*
X132623527Y-86258061D01*
X132623803Y-86529504D01*
X132620899Y-86803260D01*
X132614768Y-87060941D01*
X132605363Y-87284160D01*
X132592635Y-87454531D01*
X132577434Y-87581036D01*
X132550246Y-87703802D01*
X132507377Y-87771444D01*
X132437328Y-87810309D01*
X132320999Y-87865139D01*
X132184372Y-87947245D01*
X132106613Y-87997030D01*
X131952386Y-88087038D01*
X131781574Y-88179915D01*
X131664390Y-88243068D01*
X131469912Y-88354238D01*
X131310285Y-88452525D01*
X131250203Y-88490578D01*
X131062027Y-88600369D01*
X130876203Y-88698702D01*
X130786070Y-88746442D01*
X130681356Y-88813893D01*
X130640558Y-88858515D01*
X130638881Y-88869791D01*
X130599236Y-88876720D01*
X130581323Y-88874388D01*
X130495888Y-88904448D01*
X130377867Y-88973527D01*
X130340332Y-88998498D01*
X130198124Y-89085713D01*
X130084325Y-89145583D01*
X130066728Y-89153583D01*
X129939601Y-89219156D01*
X129797199Y-89301103D01*
X129705845Y-89355283D01*
X129531312Y-89455084D01*
X129350714Y-89555128D01*
X129118479Y-89683239D01*
X128913121Y-89801083D01*
X128771471Y-89888074D01*
X128705792Y-89936950D01*
X128692589Y-89947423D01*
X128609342Y-89993897D01*
X128482550Y-90054094D01*
X128450401Y-90069093D01*
X128285562Y-90161767D01*
X128148900Y-90260142D01*
X128013687Y-90377838D01*
X127985064Y-93171789D01*
X127984644Y-93212890D01*
X127978824Y-93808183D01*
X127973159Y-94432659D01*
X127967786Y-95067976D01*
X127962846Y-95695791D01*
X127958478Y-96297764D01*
X127954820Y-96855550D01*
X127952013Y-97350809D01*
X127950195Y-97765197D01*
X127950109Y-97790251D01*
X127948709Y-98256359D01*
X127948388Y-98633996D01*
X127949647Y-98933410D01*
X127952989Y-99164851D01*
X127958912Y-99338566D01*
X127967920Y-99464805D01*
X127980513Y-99553815D01*
X127997192Y-99615846D01*
X128018459Y-99661146D01*
X128044814Y-99699963D01*
X128078535Y-99735586D01*
X128196113Y-99830707D01*
X128366328Y-99951364D01*
X128566877Y-100083122D01*
X128775454Y-100211545D01*
X128969754Y-100322198D01*
X129127472Y-100400646D01*
X129165445Y-100419474D01*
X129286183Y-100486288D01*
X129453797Y-100583649D01*
X129644159Y-100697687D01*
X129757065Y-100764886D01*
X129928294Y-100860929D01*
X130059151Y-100926938D01*
X130127850Y-100951481D01*
X130154524Y-100955708D01*
X130194074Y-101001090D01*
X130202469Y-101023912D01*
X130268488Y-101050700D01*
X130302720Y-101056297D01*
X130342902Y-101100309D01*
X130346114Y-101116599D01*
X130400570Y-101149919D01*
X130439470Y-101160466D01*
X130547803Y-101211526D01*
X130685824Y-101290673D01*
X130691442Y-101294143D01*
X130853718Y-101392189D01*
X131057717Y-101512618D01*
X131260675Y-101630174D01*
X131268453Y-101634626D01*
X131493358Y-101763351D01*
X131748451Y-101909365D01*
X131980011Y-102041918D01*
X132030345Y-102070642D01*
X132220679Y-102177810D01*
X132388009Y-102269984D01*
X132500910Y-102329795D01*
X132627343Y-102400619D01*
X132724152Y-102466864D01*
X132760817Y-102492515D01*
X132877638Y-102563328D01*
X133045313Y-102658654D01*
X133240882Y-102765234D01*
X133318864Y-102807271D01*
X133570652Y-102946944D01*
X133823321Y-103091879D01*
X134032351Y-103216683D01*
X134085740Y-103249313D01*
X134244004Y-103342467D01*
X134363526Y-103407501D01*
X134421755Y-103431950D01*
X134469622Y-103450782D01*
X134579353Y-103511145D01*
X134721692Y-103598640D01*
X134885526Y-103702479D01*
X135211662Y-103901368D01*
X135517606Y-104078062D01*
X135794272Y-104228144D01*
X136032574Y-104347194D01*
X136223424Y-104430794D01*
X136357737Y-104474525D01*
X136426425Y-104473968D01*
X136420401Y-104424705D01*
X136413846Y-104403897D01*
X136454681Y-104398504D01*
X136513278Y-104400332D01*
X136627995Y-104331070D01*
X136757190Y-104177454D01*
X136758261Y-104175877D01*
X136771932Y-104149923D01*
X136784032Y-104111546D01*
X136794657Y-104054961D01*
X136803901Y-103974381D01*
X136811859Y-103864019D01*
X136818627Y-103718089D01*
X136824300Y-103530804D01*
X136828971Y-103296379D01*
X136832738Y-103009026D01*
X136835694Y-102662959D01*
X136837934Y-102252393D01*
X136839554Y-101771540D01*
X136840648Y-101214614D01*
X136841313Y-100575828D01*
X136841641Y-99849397D01*
X136841730Y-99029533D01*
X136841730Y-94004272D01*
X139203226Y-94017623D01*
X141564721Y-94030973D01*
X141547269Y-93070552D01*
X141529816Y-92110131D01*
X141365497Y-91972954D01*
X141312070Y-91931300D01*
X141143894Y-91818601D01*
X140968622Y-91719694D01*
X140829756Y-91645320D01*
X140630483Y-91529272D01*
X140438410Y-91409276D01*
X140275042Y-91306931D01*
X140089286Y-91198861D01*
X139942316Y-91121904D01*
X139858901Y-91080764D01*
X139675768Y-90982931D01*
X139495831Y-90879428D01*
X139370659Y-90805372D01*
X139157967Y-90682982D01*
X138955523Y-90569740D01*
X138806091Y-90487112D01*
X138666793Y-90408688D01*
X138583110Y-90359879D01*
X138577293Y-90356336D01*
X138493899Y-90307735D01*
X138345962Y-90223100D01*
X138152565Y-90113307D01*
X137932793Y-89989232D01*
X137911225Y-89977085D01*
X137684101Y-89848777D01*
X137477484Y-89731410D01*
X137313382Y-89637519D01*
X137213800Y-89579642D01*
X137076690Y-89500724D01*
X136953351Y-89433830D01*
X136948316Y-89431237D01*
X136913384Y-89409939D01*
X136887063Y-89378614D01*
X136868134Y-89324522D01*
X136855380Y-89234919D01*
X136847580Y-89097066D01*
X136843518Y-88898219D01*
X136841974Y-88625636D01*
X136841730Y-88266577D01*
X136841730Y-87156584D01*
X136951754Y-87215467D01*
X137023405Y-87256409D01*
X137163277Y-87341120D01*
X137321441Y-87440455D01*
X137444806Y-87517658D01*
X137553611Y-87581890D01*
X137604303Y-87606559D01*
X137634731Y-87620684D01*
X137735391Y-87677286D01*
X137887763Y-87767135D01*
X138073254Y-87879411D01*
X138215186Y-87965220D01*
X138380189Y-88061876D01*
X138499269Y-88127852D01*
X138553276Y-88152262D01*
X138554931Y-88152354D01*
X138618622Y-88181093D01*
X138719228Y-88245673D01*
X138730792Y-88253785D01*
X138871714Y-88345370D01*
X139024542Y-88435944D01*
X139097239Y-88476483D01*
X139268937Y-88572178D01*
X139444616Y-88670039D01*
X139529966Y-88718884D01*
X139727551Y-88838735D01*
X139900039Y-88951057D01*
X139977264Y-89002734D01*
X140084891Y-89068942D01*
X140140501Y-89094840D01*
X140143295Y-89095227D01*
X140194876Y-89118627D01*
X140306924Y-89180239D01*
X140484220Y-89282865D01*
X140731544Y-89429302D01*
X141053678Y-89622352D01*
X141455402Y-89864812D01*
X141519202Y-89903304D01*
X141769043Y-90052569D01*
X142027979Y-90205465D01*
X142249152Y-90334279D01*
X142291557Y-90358768D01*
X142490891Y-90475267D01*
X142674123Y-90584314D01*
X142806194Y-90665086D01*
X142856182Y-90695634D01*
X142968676Y-90757109D01*
X143033191Y-90781559D01*
X143034863Y-90781643D01*
X143097018Y-90817350D01*
X143184949Y-90898364D01*
X143191029Y-90904937D01*
X143231736Y-90958864D01*
X143262343Y-91029038D01*
X143285705Y-91132035D01*
X143304677Y-91284432D01*
X143322114Y-91502807D01*
X143340870Y-91803736D01*
X143346569Y-91913941D01*
X143357560Y-92202487D01*
X143367445Y-92561480D01*
X143375860Y-92971636D01*
X143382437Y-93413668D01*
X143386810Y-93868294D01*
X143388612Y-94316227D01*
X143390167Y-96040153D01*
X141033722Y-96040153D01*
X138677277Y-96040153D01*
X138677277Y-97850895D01*
X138677277Y-97859249D01*
X138678087Y-98271474D01*
X138680333Y-98650440D01*
X138683835Y-98985155D01*
X138688415Y-99264626D01*
X138693893Y-99477859D01*
X138700090Y-99613860D01*
X138706826Y-99661637D01*
X138709843Y-99661282D01*
X138772918Y-99630020D01*
X138873979Y-99563654D01*
X139002930Y-99480974D01*
X139129684Y-99413943D01*
X139212428Y-99371824D01*
X139358164Y-99288282D01*
X139520636Y-99188337D01*
X139656549Y-99104505D01*
X139807723Y-99017483D01*
X139912186Y-98964515D01*
X139917244Y-98962284D01*
X140005994Y-98915886D01*
X140168024Y-98825212D01*
X140392802Y-98696403D01*
X140669795Y-98535599D01*
X140988469Y-98348940D01*
X141338293Y-98142569D01*
X141708734Y-97922625D01*
X142089258Y-97695249D01*
X142153372Y-97656999D01*
X142308912Y-97565936D01*
X142421454Y-97502583D01*
X142470089Y-97478825D01*
X142486508Y-97471680D01*
X142571520Y-97424250D01*
X142710612Y-97342156D01*
X142884073Y-97236916D01*
X143278231Y-96995006D01*
X143309229Y-97497365D01*
X143317612Y-97650554D01*
X143330568Y-97958209D01*
X143340678Y-98286579D01*
X143346268Y-98586466D01*
X143352309Y-99173209D01*
X143175432Y-99293400D01*
X143129495Y-99323894D01*
X143023687Y-99388041D01*
X142966202Y-99413590D01*
X142929031Y-99429144D01*
X142820820Y-99486248D01*
X142661581Y-99575484D01*
X142470234Y-99686442D01*
X142314395Y-99777115D01*
X142147713Y-99871391D01*
X142028494Y-99935584D01*
X141975594Y-99959294D01*
X141951237Y-99968407D01*
X141861797Y-100019393D01*
X141737192Y-100100247D01*
X141620329Y-100175812D01*
X141427197Y-100292478D01*
X141234142Y-100401945D01*
X141082999Y-100486496D01*
X140922579Y-100581265D01*
X140812462Y-100652063D01*
X140702136Y-100722739D01*
X140532197Y-100822865D01*
X140334738Y-100934147D01*
X140140422Y-101039311D01*
X139979910Y-101121086D01*
X139907956Y-101164601D01*
X139868289Y-101211930D01*
X139859826Y-101228942D01*
X139793488Y-101249137D01*
X139759421Y-101253324D01*
X139719074Y-101286636D01*
X139717832Y-101291818D01*
X139664832Y-101337854D01*
X139557843Y-101393168D01*
X139454635Y-101442863D01*
X139287361Y-101533027D01*
X139111823Y-101635285D01*
X139098673Y-101643317D01*
X138929337Y-101759850D01*
X138827669Y-101866543D01*
X138770159Y-101987640D01*
X138765865Y-102003649D01*
X138747208Y-102133361D01*
X138730361Y-102347886D01*
X138715946Y-102635424D01*
X138704581Y-102984175D01*
X138696887Y-103382340D01*
X138691312Y-103746162D01*
X138682266Y-104166590D01*
X138670955Y-104504509D01*
X138656665Y-104769581D01*
X138638681Y-104971470D01*
X138616288Y-105119839D01*
X138588772Y-105224352D01*
X138555416Y-105294671D01*
X138540967Y-105311506D01*
X138455244Y-105383558D01*
X138317708Y-105484478D01*
X138150351Y-105599704D01*
X137975164Y-105714673D01*
X137814138Y-105814824D01*
X137689263Y-105885593D01*
X137622531Y-105912419D01*
X137574861Y-105930119D01*
X137464955Y-105987973D01*
X137316348Y-106073649D01*
X137149841Y-106174296D01*
X136986238Y-106277062D01*
X136846338Y-106369092D01*
X136750943Y-106437535D01*
X136720856Y-106469539D01*
X136727049Y-106486308D01*
X136688537Y-106535233D01*
X136657271Y-106549133D01*
X136663360Y-106515396D01*
X136683403Y-106478542D01*
X136673683Y-106463495D01*
X136608917Y-106488076D01*
X136472812Y-106555733D01*
X136421492Y-106580753D01*
X136309909Y-106626136D01*
X136251482Y-106636047D01*
X136247790Y-106633888D01*
X136181765Y-106594696D01*
X136057768Y-106520795D01*
X135899152Y-106426100D01*
X135892718Y-106422259D01*
X135711940Y-106316446D01*
X135545207Y-106222313D01*
X135427863Y-106159830D01*
X135419076Y-106155451D01*
X135312115Y-106096820D01*
X135254230Y-106055588D01*
X135236094Y-106040791D01*
X135148364Y-105987390D01*
X135019099Y-105918337D01*
X134957453Y-105885946D01*
X134790076Y-105793187D01*
X134585276Y-105675578D01*
X134374177Y-105550855D01*
X134254436Y-105479512D01*
X134065258Y-105368904D01*
X133910589Y-105281010D01*
X133815558Y-105230254D01*
X133780600Y-105212666D01*
X133643446Y-105137391D01*
X133493097Y-105048631D01*
X133437187Y-105014790D01*
X133250796Y-104905972D01*
X133068558Y-104803983D01*
X133063651Y-104801318D01*
X132912140Y-104718452D01*
X132754614Y-104630892D01*
X132564413Y-104523708D01*
X132314874Y-104381971D01*
X132306082Y-104376947D01*
X132177498Y-104301499D01*
X132003070Y-104196946D01*
X131817907Y-104084315D01*
X131775682Y-104058565D01*
X131621041Y-103966887D01*
X131505790Y-103902646D01*
X131452291Y-103878434D01*
X131425582Y-103868121D01*
X131329230Y-103817620D01*
X131161210Y-103723333D01*
X130918216Y-103583370D01*
X130596939Y-103395838D01*
X130194074Y-103158847D01*
X130065884Y-103084585D01*
X129887339Y-102984747D01*
X129747589Y-102910567D01*
X129665887Y-102866968D01*
X129497208Y-102769339D01*
X129325910Y-102663191D01*
X129310209Y-102653136D01*
X129134525Y-102546152D01*
X128918693Y-102421512D01*
X128705792Y-102304155D01*
X128685101Y-102293067D01*
X128466609Y-102173947D01*
X128246606Y-102051021D01*
X128069783Y-101949231D01*
X127942974Y-101880776D01*
X127822910Y-101830571D01*
X127758495Y-101822562D01*
X127740470Y-101829544D01*
X127724778Y-101795304D01*
X127712861Y-101771551D01*
X127633236Y-101703639D01*
X127494845Y-101610944D01*
X127315934Y-101506363D01*
X127010366Y-101336966D01*
X126740613Y-101183604D01*
X126541759Y-101064881D01*
X126404629Y-100975071D01*
X126320047Y-100908449D01*
X126278838Y-100859291D01*
X126255690Y-100806195D01*
X126232549Y-100725774D01*
X126212217Y-100617887D01*
X126194556Y-100477015D01*
X126179429Y-100297640D01*
X126166698Y-100074242D01*
X126156226Y-99801302D01*
X126147876Y-99473301D01*
X126141511Y-99084720D01*
X126136992Y-98630041D01*
X126134183Y-98103743D01*
X126132946Y-97500308D01*
X126133144Y-96814216D01*
X126134640Y-96039950D01*
X126137296Y-95171989D01*
X126138348Y-94875896D01*
X126141695Y-94023622D01*
X126145308Y-93263390D01*
X126149350Y-92589778D01*
X126153984Y-91997362D01*
X126159371Y-91480721D01*
X126165675Y-91034429D01*
X126173058Y-90653065D01*
X126181683Y-90331206D01*
X126191711Y-90063429D01*
X126203307Y-89844309D01*
X126216631Y-89668426D01*
X126231848Y-89530354D01*
X126249118Y-89424672D01*
X126268606Y-89345957D01*
X126290474Y-89288785D01*
X126314883Y-89247733D01*
X126331861Y-89227796D01*
X126435922Y-89136699D01*
X126592029Y-89023495D01*
X126773346Y-88908066D01*
X126805222Y-88889120D01*
X127041224Y-88748637D01*
X127303153Y-88592450D01*
X127539972Y-88450988D01*
X127613457Y-88407106D01*
X127812129Y-88289087D01*
X127988213Y-88185288D01*
X128110480Y-88114148D01*
X128248626Y-88034984D01*
X128687661Y-87782976D01*
X129055141Y-87571215D01*
X129362605Y-87392962D01*
X129621589Y-87241477D01*
X129843632Y-87110024D01*
X130040270Y-86991862D01*
X130223042Y-86880253D01*
X130278601Y-86846349D01*
X130436589Y-86753293D01*
X130555241Y-86688374D01*
X130612259Y-86663981D01*
X130613932Y-86663902D01*
X130679958Y-86635252D01*
X130781728Y-86570571D01*
X130812379Y-86549419D01*
X130955745Y-86457619D01*
X131111847Y-86365119D01*
X131348255Y-86231349D01*
X131595203Y-86090577D01*
X131840960Y-85949034D01*
X132128839Y-85781878D01*
X132245881Y-85715388D01*
X132411034Y-85627847D01*
X132531719Y-85571896D01*
X132587726Y-85557422D01*
X132591582Y-85563160D01*
G37*
G36*
X141506057Y-49248640D02*
G01*
X141511823Y-49746597D01*
X140380940Y-50877631D01*
X139250056Y-52008666D01*
X138997864Y-51757131D01*
X138745672Y-51505596D01*
X140122982Y-50128140D01*
X141500292Y-48750683D01*
X141506057Y-49248640D01*
G37*
G36*
X139794940Y-47020172D02*
G01*
X139832310Y-47050756D01*
X139890659Y-47103602D01*
X139964358Y-47173553D01*
X140047776Y-47255454D01*
X140289265Y-47496257D01*
X140037723Y-47748456D01*
X139786181Y-48000655D01*
X139533996Y-47749127D01*
X139281811Y-47497599D01*
X139522600Y-47256125D01*
X139574316Y-47204755D01*
X139652241Y-47129340D01*
X139717047Y-47069070D01*
X139763118Y-47029117D01*
X139784839Y-47014650D01*
X139794940Y-47020172D01*
G37*
G36*
X137454279Y-50470975D02*
G01*
X137705904Y-50722600D01*
X137459987Y-50969216D01*
X137403138Y-51025919D01*
X137326402Y-51101386D01*
X137263876Y-51161580D01*
X137220860Y-51201422D01*
X137202655Y-51215832D01*
X137193426Y-51209209D01*
X137157977Y-51177163D01*
X137101276Y-51123095D01*
X137028624Y-51052086D01*
X136945322Y-50969216D01*
X136699405Y-50722600D01*
X136951030Y-50470975D01*
X137202655Y-50219351D01*
X137454279Y-50470975D01*
G37*
G36*
X141511009Y-50722752D02*
G01*
X141511009Y-51226326D01*
X140755553Y-51982007D01*
X140725744Y-52011816D01*
X140578892Y-52158410D01*
X140441837Y-52294807D01*
X140317500Y-52418126D01*
X140208806Y-52525484D01*
X140118677Y-52614001D01*
X140050037Y-52680795D01*
X140005809Y-52722985D01*
X139988916Y-52737688D01*
X139979728Y-52731054D01*
X139944339Y-52698994D01*
X139887687Y-52644917D01*
X139815068Y-52573903D01*
X139731777Y-52491029D01*
X139485818Y-52244371D01*
X140498413Y-51231775D01*
X141511009Y-50219179D01*
X141511009Y-50722752D01*
G37*
G36*
X138236812Y-48209554D02*
G01*
X138489004Y-48461088D01*
X137111757Y-49838460D01*
X137097651Y-49852566D01*
X136896420Y-50053617D01*
X136703885Y-50245644D01*
X136522203Y-50426513D01*
X136353531Y-50594091D01*
X136200027Y-50746245D01*
X136063850Y-50880843D01*
X135947156Y-50995751D01*
X135852103Y-51088837D01*
X135780850Y-51157967D01*
X135735553Y-51201010D01*
X135718371Y-51215832D01*
X135715820Y-51209705D01*
X135711460Y-51168570D01*
X135707722Y-51093843D01*
X135704805Y-50991539D01*
X135702909Y-50867675D01*
X135702233Y-50728269D01*
X135702233Y-50240706D01*
X136843427Y-49099363D01*
X137984621Y-47958019D01*
X138236812Y-48209554D01*
G37*
G36*
X137819096Y-51328614D02*
G01*
X137943001Y-51451226D01*
X138065572Y-51328654D01*
X138188144Y-51206083D01*
X138306285Y-51322756D01*
X138318395Y-51334829D01*
X138372260Y-51391600D01*
X138410125Y-51436580D01*
X138424427Y-51460923D01*
X138424162Y-51462674D01*
X138406559Y-51490635D01*
X138366834Y-51538020D01*
X138312627Y-51595622D01*
X138304068Y-51604253D01*
X138249774Y-51657263D01*
X138208515Y-51694665D01*
X138188646Y-51708827D01*
X138186655Y-51708141D01*
X138161597Y-51688361D01*
X138116657Y-51646784D01*
X138059984Y-51590882D01*
X137943503Y-51472936D01*
X137819577Y-51595569D01*
X137695650Y-51718203D01*
X137566813Y-51590710D01*
X137437976Y-51463217D01*
X137566584Y-51334610D01*
X137695191Y-51206002D01*
X137819096Y-51328614D01*
G37*
G36*
X132687185Y-54586770D02*
G01*
X132704114Y-54588186D01*
X132861956Y-54617827D01*
X132992894Y-54676767D01*
X133103287Y-54767772D01*
X133172950Y-54841331D01*
X133172950Y-54743349D01*
X133172950Y-54645367D01*
X133408731Y-54645367D01*
X133644511Y-54645367D01*
X133644511Y-55599207D01*
X133644511Y-56553047D01*
X133387296Y-56553047D01*
X133130081Y-56553047D01*
X133129610Y-55979671D01*
X133128937Y-55795468D01*
X133126558Y-55638833D01*
X133121569Y-55515232D01*
X133113056Y-55419628D01*
X133100108Y-55346985D01*
X133081812Y-55292264D01*
X133057256Y-55250430D01*
X133025527Y-55216446D01*
X132985714Y-55185273D01*
X132944169Y-55161035D01*
X132845445Y-55124754D01*
X132733300Y-55102777D01*
X132626368Y-55099547D01*
X132540629Y-55106211D01*
X132534586Y-54840492D01*
X132528542Y-54574772D01*
X132687185Y-54586770D01*
G37*
G36*
X140278520Y-48965199D02*
G01*
X140334380Y-49021460D01*
X140410110Y-49099750D01*
X140470537Y-49164709D01*
X140510545Y-49210790D01*
X140525017Y-49232446D01*
X140519498Y-49242544D01*
X140488917Y-49279911D01*
X140436074Y-49338257D01*
X140366126Y-49411953D01*
X140284228Y-49495370D01*
X140231952Y-49547539D01*
X140155674Y-49622661D01*
X140093476Y-49682675D01*
X140050705Y-49722446D01*
X140032707Y-49736844D01*
X140023372Y-49731198D01*
X139988258Y-49700558D01*
X139933913Y-49648892D01*
X139866575Y-49582564D01*
X139792483Y-49507939D01*
X139717873Y-49431382D01*
X139648984Y-49359258D01*
X139592055Y-49297932D01*
X139553323Y-49253768D01*
X139539026Y-49233131D01*
X139545441Y-49221723D01*
X139577327Y-49183126D01*
X139631382Y-49123797D01*
X139702487Y-49049300D01*
X139785524Y-48965199D01*
X140032022Y-48719400D01*
X140278520Y-48965199D01*
G37*
G36*
X137453133Y-51967783D02*
G01*
X137484205Y-51991393D01*
X137535956Y-52037548D01*
X137601890Y-52099767D01*
X137675508Y-52171573D01*
X137750312Y-52246485D01*
X137819805Y-52318025D01*
X137877487Y-52379714D01*
X137916862Y-52425072D01*
X137931431Y-52447620D01*
X137925911Y-52457721D01*
X137895331Y-52495092D01*
X137842488Y-52553443D01*
X137772540Y-52627142D01*
X137690641Y-52710559D01*
X137638401Y-52762678D01*
X137562017Y-52837819D01*
X137499653Y-52897849D01*
X137456671Y-52937632D01*
X137438435Y-52952034D01*
X137429232Y-52945434D01*
X137393810Y-52913415D01*
X137337132Y-52859372D01*
X137264501Y-52788385D01*
X137181220Y-52705536D01*
X136935421Y-52459038D01*
X137181220Y-52212540D01*
X137237482Y-52156678D01*
X137315770Y-52080949D01*
X137380725Y-52020523D01*
X137426802Y-51980515D01*
X137448453Y-51966043D01*
X137453133Y-51967783D01*
G37*
G36*
X140905599Y-48113442D02*
G01*
X141285520Y-48493363D01*
X141039585Y-48739998D01*
X140982686Y-48796769D01*
X140906056Y-48872218D01*
X140843695Y-48932397D01*
X140800888Y-48972228D01*
X140782918Y-48986633D01*
X140773590Y-48980915D01*
X140738518Y-48950217D01*
X140684194Y-48898559D01*
X140616862Y-48832295D01*
X140542763Y-48757783D01*
X140468139Y-48681377D01*
X140399232Y-48609435D01*
X140342285Y-48548311D01*
X140303539Y-48504362D01*
X140289237Y-48483944D01*
X140289504Y-48482211D01*
X140307116Y-48454424D01*
X140346839Y-48407171D01*
X140401036Y-48349628D01*
X140512836Y-48236422D01*
X140401036Y-48123217D01*
X140393327Y-48115360D01*
X140340594Y-48058579D01*
X140303350Y-48013229D01*
X140289237Y-47988518D01*
X140289864Y-47985684D01*
X140309547Y-47956452D01*
X140351265Y-47908368D01*
X140407458Y-47850273D01*
X140525678Y-47733521D01*
X140905599Y-48113442D01*
G37*
G36*
X139656885Y-48343565D02*
G01*
X139668803Y-48355444D01*
X139722648Y-48412188D01*
X139760505Y-48457162D01*
X139774806Y-48481514D01*
X139774542Y-48483264D01*
X139756939Y-48511226D01*
X139717213Y-48558611D01*
X139663007Y-48616212D01*
X139655223Y-48624043D01*
X139599115Y-48677428D01*
X139554244Y-48715131D01*
X139529715Y-48729418D01*
X139527965Y-48729153D01*
X139500003Y-48711550D01*
X139452618Y-48671825D01*
X139395016Y-48617619D01*
X139281811Y-48505819D01*
X139168605Y-48617619D01*
X139160748Y-48625328D01*
X139103968Y-48678061D01*
X139058618Y-48715305D01*
X139033907Y-48729418D01*
X139031140Y-48728816D01*
X139001995Y-48709242D01*
X138953982Y-48667612D01*
X138895957Y-48611497D01*
X138779501Y-48493576D01*
X138906760Y-48364974D01*
X139034020Y-48236373D01*
X139157915Y-48358976D01*
X139281811Y-48481578D01*
X139410387Y-48354343D01*
X139538964Y-48227108D01*
X139656885Y-48343565D01*
G37*
G36*
X137246202Y-47235434D02*
G01*
X137284845Y-47267352D01*
X137344213Y-47321434D01*
X137418743Y-47392565D01*
X137502871Y-47475626D01*
X137748801Y-47722256D01*
X136741678Y-48729550D01*
X136661049Y-48810142D01*
X136492760Y-48978010D01*
X136334442Y-49135477D01*
X136188630Y-49280047D01*
X136057861Y-49409224D01*
X135944669Y-49520511D01*
X135851591Y-49611413D01*
X135781162Y-49679433D01*
X135735918Y-49722075D01*
X135718394Y-49736844D01*
X135715605Y-49729377D01*
X135711307Y-49686125D01*
X135707627Y-49609524D01*
X135704759Y-49505531D01*
X135702896Y-49380101D01*
X135702233Y-49239190D01*
X135702233Y-48741536D01*
X136457397Y-47985266D01*
X136486346Y-47956291D01*
X136633583Y-47809432D01*
X136771423Y-47672778D01*
X136896893Y-47549219D01*
X137007025Y-47441645D01*
X137098847Y-47352946D01*
X137169389Y-47286012D01*
X137215680Y-47243732D01*
X137234751Y-47228996D01*
X137246202Y-47235434D01*
G37*
G36*
X136467107Y-50981738D02*
G01*
X136498218Y-51005250D01*
X136549993Y-51051388D01*
X136615937Y-51113662D01*
X136689556Y-51185582D01*
X136764354Y-51260657D01*
X136833836Y-51332396D01*
X136891508Y-51394309D01*
X136930874Y-51439906D01*
X136945439Y-51462696D01*
X136944844Y-51465548D01*
X136925283Y-51495161D01*
X136883640Y-51543525D01*
X136827494Y-51601709D01*
X136709548Y-51718190D01*
X136832151Y-51842085D01*
X136954753Y-51965981D01*
X136838297Y-52083902D01*
X136826490Y-52095743D01*
X136769563Y-52149624D01*
X136724238Y-52187510D01*
X136699437Y-52201823D01*
X136688406Y-52195074D01*
X136649785Y-52162244D01*
X136588513Y-52105885D01*
X136509030Y-52030183D01*
X136415771Y-51939324D01*
X136313175Y-51837492D01*
X135949317Y-51473160D01*
X136195172Y-51226606D01*
X136251486Y-51170693D01*
X136329778Y-51094960D01*
X136394734Y-51034532D01*
X136440811Y-50994524D01*
X136462461Y-50980051D01*
X136467107Y-50981738D01*
G37*
G36*
X139459442Y-53944939D02*
G01*
X139648367Y-53974746D01*
X139804776Y-54030633D01*
X139929306Y-54113986D01*
X140023601Y-54226277D01*
X140089303Y-54368975D01*
X140128055Y-54543553D01*
X140141821Y-54645367D01*
X140279833Y-54645367D01*
X140417844Y-54645367D01*
X140417844Y-54827561D01*
X140417844Y-55009756D01*
X140278520Y-55009756D01*
X140139195Y-55009756D01*
X140139195Y-55781401D01*
X140139195Y-56553047D01*
X139881979Y-56553047D01*
X139624764Y-56553047D01*
X139624764Y-55781401D01*
X139624764Y-55009756D01*
X139464005Y-55009756D01*
X139303245Y-55009756D01*
X139303245Y-54827561D01*
X139303245Y-54645367D01*
X139466827Y-54645367D01*
X139630409Y-54645367D01*
X139618195Y-54554304D01*
X139609503Y-54514913D01*
X139571162Y-54439475D01*
X139513816Y-54386594D01*
X139446734Y-54366425D01*
X139414001Y-54365917D01*
X139361548Y-54360193D01*
X139328963Y-54341917D01*
X139311530Y-54303512D01*
X139304530Y-54237401D01*
X139303245Y-54136009D01*
X139303245Y-53931735D01*
X139459442Y-53944939D01*
G37*
G36*
X137243742Y-54645420D02*
G01*
X137345249Y-54646701D01*
X137427497Y-54649441D01*
X137482617Y-54653293D01*
X137502739Y-54657910D01*
X137496769Y-54676999D01*
X137477708Y-54732814D01*
X137446933Y-54821248D01*
X137405859Y-54938273D01*
X137355906Y-55079863D01*
X137298491Y-55241990D01*
X137235031Y-55420628D01*
X137166944Y-55611749D01*
X136831148Y-56553047D01*
X136559161Y-56553047D01*
X136287175Y-56553047D01*
X135946408Y-55604566D01*
X135605641Y-54656085D01*
X135871193Y-54650064D01*
X135879385Y-54649882D01*
X135980350Y-54648326D01*
X136063927Y-54648250D01*
X136121628Y-54649585D01*
X136144966Y-54652264D01*
X136145492Y-54653154D01*
X136155820Y-54681043D01*
X136177098Y-54743699D01*
X136207600Y-54835872D01*
X136245601Y-54952315D01*
X136289375Y-55087780D01*
X136337198Y-55237019D01*
X136344119Y-55258690D01*
X136391908Y-55407595D01*
X136435748Y-55542973D01*
X136473841Y-55659357D01*
X136504386Y-55751277D01*
X136525583Y-55813267D01*
X136535633Y-55839858D01*
X136537861Y-55839610D01*
X136551788Y-55812734D01*
X136575943Y-55751359D01*
X136608653Y-55660230D01*
X136648247Y-55544091D01*
X136693053Y-55407688D01*
X136741401Y-55255765D01*
X136932745Y-54645367D01*
X137217742Y-54645367D01*
X137243742Y-54645420D01*
G37*
G36*
X139170089Y-55100853D02*
G01*
X139169425Y-55206441D01*
X139167953Y-55421314D01*
X139166414Y-55599080D01*
X139164613Y-55743757D01*
X139162358Y-55859367D01*
X139159454Y-55949930D01*
X139155710Y-56019465D01*
X139150931Y-56071992D01*
X139144924Y-56111531D01*
X139137495Y-56142103D01*
X139128453Y-56167727D01*
X139117603Y-56192424D01*
X139105593Y-56217144D01*
X139010767Y-56357683D01*
X138885907Y-56469945D01*
X138735431Y-56550706D01*
X138563752Y-56596745D01*
X138516314Y-56602916D01*
X138328204Y-56605813D01*
X138152813Y-56574632D01*
X137994927Y-56511742D01*
X137859333Y-56419512D01*
X137750818Y-56300310D01*
X137674170Y-56156507D01*
X137657527Y-56108902D01*
X137643109Y-56053666D01*
X137632642Y-55989443D01*
X137625118Y-55907764D01*
X137619528Y-55800157D01*
X137614864Y-55658152D01*
X137604512Y-55288405D01*
X137853710Y-55288405D01*
X138102908Y-55288405D01*
X138102908Y-55603157D01*
X138103096Y-55676727D01*
X138104814Y-55785065D01*
X138109096Y-55863776D01*
X138116867Y-55921461D01*
X138129058Y-55966720D01*
X138146594Y-56008152D01*
X138154675Y-56023591D01*
X138218441Y-56098861D01*
X138301122Y-56143315D01*
X138393311Y-56156885D01*
X138485600Y-56139504D01*
X138568580Y-56091105D01*
X138632845Y-56011621D01*
X138641383Y-55993855D01*
X138652341Y-55959680D01*
X138660679Y-55912687D01*
X138666905Y-55846867D01*
X138671523Y-55756209D01*
X138675042Y-55634702D01*
X138677967Y-55476337D01*
X138685256Y-55010512D01*
X138152943Y-55004775D01*
X137620629Y-54999038D01*
X137614410Y-54822579D01*
X137608190Y-54646120D01*
X138139558Y-54640385D01*
X138670925Y-54634650D01*
X138676943Y-54372076D01*
X138682961Y-54109502D01*
X138929610Y-54109502D01*
X139176258Y-54109502D01*
X139170089Y-55100853D01*
G37*
G36*
X142303338Y-55574605D02*
G01*
X142300191Y-55711291D01*
X142288901Y-55835702D01*
X142269573Y-55932912D01*
X142240095Y-56019394D01*
X142149690Y-56197855D01*
X142029357Y-56346334D01*
X141881002Y-56463175D01*
X141706529Y-56546721D01*
X141507845Y-56595316D01*
X141453221Y-56603043D01*
X141378982Y-56611313D01*
X141317067Y-56612793D01*
X141249259Y-56607487D01*
X141157338Y-56595398D01*
X141000272Y-56559198D01*
X140830567Y-56486542D01*
X140679616Y-56385525D01*
X140554762Y-56261190D01*
X140463344Y-56118581D01*
X140411360Y-55985313D01*
X140369103Y-55796370D01*
X140354429Y-55597657D01*
X140361610Y-55486671D01*
X140874009Y-55486671D01*
X140874473Y-55670542D01*
X140894889Y-55808673D01*
X140941692Y-55944819D01*
X141011580Y-56049318D01*
X141102935Y-56118996D01*
X141196247Y-56150958D01*
X141311434Y-56166198D01*
X141426209Y-56161933D01*
X141522125Y-56137353D01*
X141564318Y-56113534D01*
X141641722Y-56044601D01*
X141707700Y-55955904D01*
X141750143Y-55862062D01*
X141754578Y-55844002D01*
X141765759Y-55769173D01*
X141773391Y-55673337D01*
X141776024Y-55572709D01*
X141775624Y-55525621D01*
X141771997Y-55439269D01*
X141762255Y-55374806D01*
X141743497Y-55317555D01*
X141712823Y-55252840D01*
X141651021Y-55157333D01*
X141566875Y-55084838D01*
X141460180Y-55043998D01*
X141324590Y-55031190D01*
X141287320Y-55032240D01*
X141151527Y-55057889D01*
X141041613Y-55117131D01*
X140958265Y-55208991D01*
X140902168Y-55332496D01*
X140874009Y-55486671D01*
X140361610Y-55486671D01*
X140367223Y-55399915D01*
X140407371Y-55213886D01*
X140474758Y-55050312D01*
X140494414Y-55016191D01*
X140606887Y-54870912D01*
X140748348Y-54752972D01*
X140913788Y-54664567D01*
X141098202Y-54607897D01*
X141296581Y-54585158D01*
X141503920Y-54598549D01*
X141616924Y-54621836D01*
X141804101Y-54691121D01*
X141966024Y-54793315D01*
X142100084Y-54926131D01*
X142203675Y-55087281D01*
X142274189Y-55274477D01*
X142284782Y-55324116D01*
X142298236Y-55440571D01*
X142303266Y-55572709D01*
X142303338Y-55574605D01*
G37*
G36*
X135645355Y-55510582D02*
G01*
X135645221Y-55668696D01*
X135633157Y-55820040D01*
X135608942Y-55950624D01*
X135581738Y-56039622D01*
X135499965Y-56215272D01*
X135389668Y-56359349D01*
X135251814Y-56470977D01*
X135087373Y-56549281D01*
X134897313Y-56593387D01*
X134732740Y-56606157D01*
X134525321Y-56591976D01*
X134339671Y-56540968D01*
X134175580Y-56453071D01*
X134032839Y-56328218D01*
X133969713Y-56250219D01*
X133913284Y-56161199D01*
X133874262Y-56077674D01*
X133859328Y-56011823D01*
X133859612Y-56005795D01*
X133866815Y-55991730D01*
X133888967Y-55982574D01*
X133933047Y-55977301D01*
X134006033Y-55974889D01*
X134114903Y-55974313D01*
X134221621Y-55974567D01*
X134295418Y-55976395D01*
X134342102Y-55981391D01*
X134369616Y-55991148D01*
X134385904Y-56007263D01*
X134398911Y-56031330D01*
X134411642Y-56054653D01*
X134473340Y-56122929D01*
X134562217Y-56165336D01*
X134683612Y-56184751D01*
X134732218Y-56187149D01*
X134800958Y-56184504D01*
X134856290Y-56169330D01*
X134917089Y-56137835D01*
X134921025Y-56135477D01*
X134996070Y-56071589D01*
X135060847Y-55984264D01*
X135106332Y-55888333D01*
X135123498Y-55798627D01*
X135123498Y-55738532D01*
X134466796Y-55738532D01*
X133810093Y-55738532D01*
X133824851Y-55556644D01*
X133845991Y-55395578D01*
X134346494Y-55395578D01*
X134735405Y-55395578D01*
X135124315Y-55395578D01*
X135110148Y-55336633D01*
X135102526Y-55308036D01*
X135048861Y-55184528D01*
X134971397Y-55089534D01*
X134875191Y-55026604D01*
X134765298Y-54999291D01*
X134646775Y-55011146D01*
X134565081Y-55040449D01*
X134468294Y-55106470D01*
X134400864Y-55201698D01*
X134359697Y-55329563D01*
X134346494Y-55395578D01*
X133845991Y-55395578D01*
X133853075Y-55341608D01*
X133907473Y-55135705D01*
X133986842Y-54963775D01*
X134091942Y-54824841D01*
X134223531Y-54717921D01*
X134382368Y-54642036D01*
X134569215Y-54596207D01*
X134681636Y-54585454D01*
X134867081Y-54594440D01*
X135046137Y-54634146D01*
X135208894Y-54702029D01*
X135345439Y-54795543D01*
X135404167Y-54852572D01*
X135514851Y-55002235D01*
X135596888Y-55183010D01*
X135610708Y-55229999D01*
X135633777Y-55359687D01*
X135636531Y-55395578D01*
X135645355Y-55510582D01*
G37*
G36*
X143620731Y-53889597D02*
G01*
X143750674Y-53897627D01*
X143853555Y-53913819D01*
X143940849Y-53939429D01*
X144101971Y-54013437D01*
X144240063Y-54113736D01*
X144349040Y-54235410D01*
X144422818Y-54373545D01*
X144443630Y-54440608D01*
X144467123Y-54580400D01*
X144470558Y-54726322D01*
X144454059Y-54863635D01*
X144417750Y-54977604D01*
X144417420Y-54978300D01*
X144353117Y-55085848D01*
X144267531Y-55178440D01*
X144156356Y-55258648D01*
X144015285Y-55329049D01*
X143840009Y-55392216D01*
X143626223Y-55450724D01*
X143514472Y-55478080D01*
X143374557Y-55513323D01*
X143267065Y-55542359D01*
X143186324Y-55567173D01*
X143126661Y-55589753D01*
X143082404Y-55612085D01*
X143047881Y-55636157D01*
X143017419Y-55663954D01*
X143013128Y-55668271D01*
X142970824Y-55718597D01*
X142951642Y-55768897D01*
X142947127Y-55840392D01*
X142948861Y-55876258D01*
X142978894Y-55984854D01*
X143043236Y-56073700D01*
X143137962Y-56140593D01*
X143259145Y-56183329D01*
X143402863Y-56199704D01*
X143565190Y-56187512D01*
X143625560Y-56175807D01*
X143766915Y-56127958D01*
X143876668Y-56057713D01*
X143952110Y-55967166D01*
X143990534Y-55858415D01*
X144003032Y-55781401D01*
X144271111Y-55781401D01*
X144539189Y-55781401D01*
X144525208Y-55904650D01*
X144507340Y-56004139D01*
X144445805Y-56166999D01*
X144348335Y-56310265D01*
X144217566Y-56431177D01*
X144056134Y-56526972D01*
X143866674Y-56594887D01*
X143801320Y-56609081D01*
X143659182Y-56627659D01*
X143498979Y-56636900D01*
X143335639Y-56636592D01*
X143184087Y-56626520D01*
X143059248Y-56606469D01*
X143048290Y-56603835D01*
X142859726Y-56540005D01*
X142700863Y-56448992D01*
X142574032Y-56332467D01*
X142481563Y-56192100D01*
X142474474Y-56177524D01*
X142450579Y-56123167D01*
X142435255Y-56072232D01*
X142426630Y-56013151D01*
X142422830Y-55934354D01*
X142421979Y-55824270D01*
X142422050Y-55780215D01*
X142423518Y-55684547D01*
X142428267Y-55617220D01*
X142438088Y-55567595D01*
X142454771Y-55525034D01*
X142480105Y-55478898D01*
X142494101Y-55455930D01*
X142558887Y-55369135D01*
X142637885Y-55295083D01*
X142736796Y-55230511D01*
X142861322Y-55172155D01*
X143017164Y-55116750D01*
X143210024Y-55061033D01*
X143213368Y-55060140D01*
X143335124Y-55027377D01*
X143457746Y-54993989D01*
X143567130Y-54963837D01*
X143649173Y-54940783D01*
X143669400Y-54934774D01*
X143803474Y-54880183D01*
X143899204Y-54811519D01*
X143955713Y-54729981D01*
X143972123Y-54636768D01*
X143947558Y-54533079D01*
X143922682Y-54489229D01*
X143847576Y-54422403D01*
X143736609Y-54376321D01*
X143591261Y-54351736D01*
X143586690Y-54351363D01*
X143423210Y-54352795D01*
X143282704Y-54383551D01*
X143168557Y-54441917D01*
X143084152Y-54526178D01*
X143032874Y-54634620D01*
X143005860Y-54731106D01*
X142748431Y-54731106D01*
X142491003Y-54731106D01*
X142502913Y-54615705D01*
X142525044Y-54499823D01*
X142589711Y-54344103D01*
X142689718Y-54204673D01*
X142821261Y-54085517D01*
X142980533Y-53990619D01*
X143163728Y-53923963D01*
X143218309Y-53912276D01*
X143339570Y-53897142D01*
X143478703Y-53889509D01*
X143620731Y-53889597D01*
G37*
%TD*%
%LPC*%
D10*
%TO.C,J10*%
X105731800Y-95219200D03*
D11*
X105731800Y-97719200D03*
%TD*%
D12*
%TO.C,P1*%
X172640000Y-52605000D03*
X166860000Y-52605000D03*
D13*
X174070000Y-53105000D03*
D14*
X174070000Y-48925000D03*
D13*
X165430000Y-53105000D03*
D14*
X165430000Y-48925000D03*
%TD*%
D15*
%TO.C,J3*%
X130894600Y-73995600D03*
D11*
X130894600Y-71495600D03*
%TD*%
D16*
%TO.C,H2*%
X89325000Y-141000000D03*
X89874175Y-139674175D03*
X89874175Y-142325825D03*
X91200000Y-139125000D03*
D17*
X91200000Y-141000000D03*
D16*
X91200000Y-142875000D03*
X92525825Y-139674175D03*
X92525825Y-142325825D03*
X93075000Y-141000000D03*
%TD*%
D18*
%TO.C,J16*%
X121920000Y-122732800D03*
D19*
X121920000Y-120192800D03*
X124460000Y-122732800D03*
X124460000Y-120192800D03*
X127000000Y-122732800D03*
X127000000Y-120192800D03*
X129540000Y-122732800D03*
X129540000Y-120192800D03*
%TD*%
D10*
%TO.C,J11*%
X96486200Y-103906000D03*
D11*
X96486200Y-106406000D03*
%TD*%
D20*
%TO.C,J6*%
X119908400Y-137546900D03*
D21*
X123408400Y-137546900D03*
X126908400Y-137546900D03*
X130408400Y-137546900D03*
%TD*%
D22*
%TO.C,J2*%
X126198000Y-49936400D03*
D23*
X123698000Y-49936400D03*
%TD*%
D18*
%TO.C,U9*%
X176993400Y-113129400D03*
D19*
X174453400Y-113129400D03*
X171913400Y-113129400D03*
X169373400Y-113129400D03*
X166833400Y-113129400D03*
X164293400Y-113129400D03*
X161753400Y-113129400D03*
X159213400Y-113129400D03*
X159213400Y-125729400D03*
X161753400Y-125729400D03*
X164293400Y-125729400D03*
X166833400Y-125729400D03*
X169373400Y-125729400D03*
X171913400Y-125729400D03*
X174453400Y-125729400D03*
D24*
X176993400Y-125729400D03*
D19*
X176993400Y-118209400D03*
X176993400Y-115669400D03*
%TD*%
D20*
%TO.C,J8*%
X162908400Y-137546900D03*
D21*
X166408400Y-137546900D03*
X169908400Y-137546900D03*
X173408400Y-137546900D03*
%TD*%
D15*
%TO.C,J9*%
X130843800Y-91064400D03*
D11*
X130843800Y-88564400D03*
%TD*%
D15*
%TO.C,J4*%
X130843800Y-82580800D03*
D11*
X130843800Y-80080800D03*
%TD*%
D16*
%TO.C,H4*%
X179325000Y-51000000D03*
X179874175Y-49674175D03*
X179874175Y-52325825D03*
X181200000Y-49125000D03*
D17*
X181200000Y-51000000D03*
D16*
X181200000Y-52875000D03*
X182525825Y-49674175D03*
X182525825Y-52325825D03*
X183075000Y-51000000D03*
%TD*%
D20*
%TO.C,J5*%
X98208400Y-137546900D03*
D21*
X101708400Y-137546900D03*
X105208400Y-137546900D03*
X108708400Y-137546900D03*
%TD*%
D16*
%TO.C,H1*%
X89375000Y-51000000D03*
X89924175Y-49674175D03*
X89924175Y-52325825D03*
X91250000Y-49125000D03*
D17*
X91250000Y-51000000D03*
D16*
X91250000Y-52875000D03*
X92575825Y-49674175D03*
X92575825Y-52325825D03*
X93125000Y-51000000D03*
%TD*%
D18*
%TO.C,U6*%
X112053400Y-113179400D03*
D19*
X109513400Y-113179400D03*
X106973400Y-113179400D03*
X104433400Y-113179400D03*
X101893400Y-113179400D03*
X99353400Y-113179400D03*
X96813400Y-113179400D03*
X94273400Y-113179400D03*
X94273400Y-125779400D03*
X96813400Y-125779400D03*
X99353400Y-125779400D03*
X101893400Y-125779400D03*
X104433400Y-125779400D03*
X106973400Y-125779400D03*
X109513400Y-125779400D03*
D24*
X112053400Y-125779400D03*
D19*
X112053400Y-118259400D03*
X112053400Y-115719400D03*
%TD*%
D25*
%TO.C,J14*%
X126807600Y-64177400D03*
D26*
X124307600Y-64177400D03*
X121807600Y-64177400D03*
%TD*%
D27*
%TO.C,MICRO_SD1*%
X151753800Y-49719400D03*
X143778200Y-49719400D03*
%TD*%
D18*
%TO.C,J18*%
X165252400Y-122682000D03*
D19*
X165252400Y-120142000D03*
X167792400Y-122682000D03*
X167792400Y-120142000D03*
X170332400Y-122682000D03*
X170332400Y-120142000D03*
X172872400Y-122682000D03*
X172872400Y-120142000D03*
%TD*%
D18*
%TO.C,J15*%
X100330000Y-122732800D03*
D19*
X100330000Y-120192800D03*
X102870000Y-122732800D03*
X102870000Y-120192800D03*
X105410000Y-122732800D03*
X105410000Y-120192800D03*
X107950000Y-122732800D03*
X107950000Y-120192800D03*
%TD*%
D10*
%TO.C,J12*%
X96570800Y-95290000D03*
D11*
X96570800Y-97790000D03*
%TD*%
D16*
%TO.C,H3*%
X179325000Y-141000000D03*
X179874175Y-139674175D03*
X179874175Y-142325825D03*
X181200000Y-139125000D03*
D17*
X181200000Y-141000000D03*
D16*
X181200000Y-142875000D03*
X182525825Y-139674175D03*
X182525825Y-142325825D03*
X183075000Y-141000000D03*
%TD*%
D28*
%TO.C,J1*%
X104562500Y-56277500D03*
D29*
X99562500Y-56277500D03*
%TD*%
D20*
%TO.C,J7*%
X141408400Y-137546900D03*
D21*
X144908400Y-137546900D03*
X148408400Y-137546900D03*
X151908400Y-137546900D03*
%TD*%
D18*
%TO.C,J17*%
X143764000Y-122682000D03*
D19*
X143764000Y-120142000D03*
X146304000Y-122682000D03*
X146304000Y-120142000D03*
X148844000Y-122682000D03*
X148844000Y-120142000D03*
X151384000Y-122682000D03*
X151384000Y-120142000D03*
%TD*%
D18*
%TO.C,U7*%
X133803400Y-113179400D03*
D19*
X131263400Y-113179400D03*
X128723400Y-113179400D03*
X126183400Y-113179400D03*
X123643400Y-113179400D03*
X121103400Y-113179400D03*
X118563400Y-113179400D03*
X116023400Y-113179400D03*
X116023400Y-125779400D03*
X118563400Y-125779400D03*
X121103400Y-125779400D03*
X123643400Y-125779400D03*
X126183400Y-125779400D03*
X128723400Y-125779400D03*
X131263400Y-125779400D03*
D24*
X133803400Y-125779400D03*
D19*
X133803400Y-118259400D03*
X133803400Y-115719400D03*
%TD*%
D18*
%TO.C,U8*%
X155553400Y-113179400D03*
D19*
X153013400Y-113179400D03*
X150473400Y-113179400D03*
X147933400Y-113179400D03*
X145393400Y-113179400D03*
X142853400Y-113179400D03*
X140313400Y-113179400D03*
X137773400Y-113179400D03*
X137773400Y-125779400D03*
X140313400Y-125779400D03*
X142853400Y-125779400D03*
X145393400Y-125779400D03*
X147933400Y-125779400D03*
X150473400Y-125779400D03*
X153013400Y-125779400D03*
D24*
X155553400Y-125779400D03*
D19*
X155553400Y-118259400D03*
X155553400Y-115719400D03*
%TD*%
%LPD*%
M02*
